<svg xmlns="http://www.w3.org/2000/svg" xmlns:xlink="http://www.w3.org/1999/xlink" viewBox="0 0 334.37 334.37"><defs><style>.cls-1,.cls-2,.cls-3{fill:#fff;}.cls-1{clip-rule:evenodd;}.cls-3{fill-rule:evenodd;}.cls-4{clip-path:url(#clip-path);}.cls-5{clip-path:url(#clip-path-2);}.cls-6{isolation:isolate;}.cls-7{clip-path:url(#clip-path-3);}</style><clipPath id="clip-path"><path class="cls-1" d="M119,168.88a9.79,9.79,0,1,0,9.84,9.79,9.8,9.8,0,0,0-9.84-9.79m96.43,0a9.79,9.79,0,1,0,9.83,9.79,9.82,9.82,0,0,0-9.83-9.79m-38.05,0h-20.3a9.79,9.79,0,1,0,0,19.57h20.3a9.79,9.79,0,1,0,0-19.57M247.79,148h7.9a9.78,9.78,0,1,0,0-19.56h-18l-5.87-17.54c-5-14.71-17.18-16.84-27-18.55l-3.72-.65a179.84,179.84,0,0,0-67.81,0l-3.72.65c-9.84,1.71-22.08,3.84-27,18.55l-5.89,17.54h-18a9.78,9.78,0,1,0,0,19.56h7.92l-8.08,10.72a48.2,48.2,0,0,0-9.67,28.83v40.83a17.51,17.51,0,0,0,17.54,17.44H103a17.43,17.43,0,0,0,17.28-14.57l1.41-8.4h91.08l1.4,8.44a17.51,17.51,0,0,0,17.3,14.53H248a17.5,17.5,0,0,0,17.52-17.44V187.59a48.18,48.18,0,0,0-9.65-28.83Zm-1.93,78.26H233.23l-2.47-14.78a9.8,9.8,0,0,0-9.69-8.19H113.32a9.83,9.83,0,0,0-9.7,8.17l-2.48,14.8H88.51V187.59a28.65,28.65,0,0,1,5.73-17.1l15.38-20.42a9.34,9.34,0,0,0,1.47-2.77l10.13-30.17c1-3.09,2-3.77,11.72-5.46l4-.73a160.24,160.24,0,0,1,60.41,0l4,.73c9.74,1.69,10.7,2.37,11.74,5.47l10.1,30.16a9.76,9.76,0,0,0,1.47,2.78l15.41,20.42a28.58,28.58,0,0,1,5.71,17.09Z"/></clipPath><clipPath id="clip-path-2"><rect class="cls-2" x="49.17" y="49.17" width="236.02" height="236.02"/></clipPath><clipPath id="clip-path-3"><rect class="cls-2" x="68.84" y="78.67" width="196.69" height="167.18"/></clipPath></defs><title>step1</title><g id="Layer_2" data-name="Layer 2"><g id="Layer_1-2" data-name="Layer 1"><path class="cls-3" d="M119,168.88a9.79,9.79,0,1,0,9.84,9.79,9.8,9.8,0,0,0-9.84-9.79m96.43,0a9.79,9.79,0,1,0,9.83,9.79,9.82,9.82,0,0,0-9.83-9.79m-38.05,0h-20.3a9.79,9.79,0,1,0,0,19.57h20.3a9.79,9.79,0,1,0,0-19.57M247.79,148h7.9a9.78,9.78,0,1,0,0-19.56h-18l-5.87-17.54c-5-14.71-17.18-16.84-27-18.55l-3.72-.65a179.84,179.84,0,0,0-67.81,0l-3.72.65c-9.84,1.71-22.08,3.84-27,18.55l-5.89,17.54h-18a9.78,9.78,0,1,0,0,19.56h7.92l-8.08,10.72a48.2,48.2,0,0,0-9.67,28.83v40.83a17.51,17.51,0,0,0,17.54,17.44H103a17.43,17.43,0,0,0,17.28-14.57l1.41-8.4h91.08l1.4,8.44a17.51,17.51,0,0,0,17.3,14.53H248a17.5,17.5,0,0,0,17.52-17.44V187.59a48.18,48.18,0,0,0-9.65-28.83Zm-1.93,78.26H233.23l-2.47-14.78a9.8,9.8,0,0,0-9.69-8.19H113.32a9.83,9.83,0,0,0-9.7,8.17l-2.48,14.8H88.51V187.59a28.65,28.65,0,0,1,5.73-17.1l15.38-20.42a9.34,9.34,0,0,0,1.47-2.77l10.13-30.17c1-3.09,2-3.77,11.72-5.46l4-.73a160.24,160.24,0,0,1,60.41,0l4,.73c9.74,1.69,10.7,2.37,11.74,5.47l10.1,30.16a9.76,9.76,0,0,0,1.47,2.78l15.41,20.42a28.58,28.58,0,0,1,5.71,17.09Z"/><g class="cls-4"><rect class="cls-2" x="49.17" y="49.17" width="236.02" height="236.02"/><g class="cls-5"><g class="cls-6"><rect class="cls-2" x="68.84" y="78.67" width="196.69" height="167.18"/><g class="cls-7"><rect class="cls-2" x="68.84" y="78.67" width="196.69" height="167.18"/><g class="cls-7"><rect class="cls-2" x="19.67" y="39.34" width="295.03" height="255.69"/></g><rect class="cls-2" x="49.17" y="49.17" width="236.02" height="236.02"/><g class="cls-5"><rect class="cls-2" x="68.84" y="78.67" width="196.69" height="167.18"/><g class="cls-7"><rect class="cls-2" width="334.37" height="334.37"/></g></g></g></g></g></g></g></g></svg>