<svg viewBox="0 0 334.37 334.37" xmlns="http://www.w3.org/2000/svg" xmlns:xlink="http://www.w3.org/1999/xlink"><clipPath id="a"><path clip-rule="evenodd" d="m119 168.88a9.79 9.79 0 1 0 9.84 9.79 9.8 9.8 0 0 0 -9.84-9.79m96.43 0a9.79 9.79 0 1 0 9.83 9.79 9.82 9.82 0 0 0 -9.83-9.79m-38.05 0h-20.3a9.79 9.79 0 1 0 0 19.57h20.3a9.79 9.79 0 1 0 0-19.57m70.41-20.88h7.9a9.78 9.78 0 1 0 0-19.56h-18l-5.87-17.54c-5-14.71-17.18-16.84-27-18.55l-3.72-.65a179.84 179.84 0 0 0 -67.81 0l-3.72.65c-9.84 1.71-22.08 3.84-27 18.55l-5.89 17.54h-18a9.78 9.78 0 1 0 0 19.56h7.92l-8.08 10.72a48.2 48.2 0 0 0 -9.67 28.83v40.83a17.51 17.51 0 0 0 17.54 17.44h16.61a17.43 17.43 0 0 0 17.28-14.57l1.41-8.4h91.08l1.4 8.44a17.51 17.51 0 0 0 17.3 14.53h16.53a17.5 17.5 0 0 0 17.52-17.44v-40.79a48.18 48.18 0 0 0 -9.65-28.83zm-1.93 78.26h-12.63l-2.47-14.78a9.8 9.8 0 0 0 -9.69-8.19h-107.75a9.83 9.83 0 0 0 -9.7 8.17l-2.48 14.8h-12.63v-38.67a28.65 28.65 0 0 1 5.73-17.1l15.38-20.42a9.34 9.34 0 0 0 1.47-2.77l10.13-30.17c1-3.09 2-3.77 11.72-5.46l4-.73a160.24 160.24 0 0 1 60.41 0l4 .73c9.74 1.69 10.7 2.37 11.74 5.47l10.1 30.16a9.76 9.76 0 0 0 1.47 2.78l15.41 20.42a28.58 28.58 0 0 1 5.71 17.09z"/></clipPath><clipPath id="b"><path d="m49.17 49.17h236.02v236.02h-236.02z"/></clipPath><clipPath id="c"><path d="m68.84 78.67h196.69v167.18h-196.69z"/></clipPath><path d="m119 168.88a9.79 9.79 0 1 0 9.84 9.79 9.8 9.8 0 0 0 -9.84-9.79m96.43 0a9.79 9.79 0 1 0 9.83 9.79 9.82 9.82 0 0 0 -9.83-9.79m-38.05 0h-20.3a9.79 9.79 0 1 0 0 19.57h20.3a9.79 9.79 0 1 0 0-19.57m70.41-20.88h7.9a9.78 9.78 0 1 0 0-19.56h-18l-5.87-17.54c-5-14.71-17.18-16.84-27-18.55l-3.72-.65a179.84 179.84 0 0 0 -67.81 0l-3.72.65c-9.84 1.71-22.08 3.84-27 18.55l-5.89 17.54h-18a9.78 9.78 0 1 0 0 19.56h7.92l-8.08 10.72a48.2 48.2 0 0 0 -9.67 28.83v40.83a17.51 17.51 0 0 0 17.54 17.44h16.61a17.43 17.43 0 0 0 17.28-14.57l1.41-8.4h91.08l1.4 8.44a17.51 17.51 0 0 0 17.3 14.53h16.53a17.5 17.5 0 0 0 17.52-17.44v-40.79a48.18 48.18 0 0 0 -9.65-28.83zm-1.93 78.26h-12.63l-2.47-14.78a9.8 9.8 0 0 0 -9.69-8.19h-107.75a9.83 9.83 0 0 0 -9.7 8.17l-2.48 14.8h-12.63v-38.67a28.65 28.65 0 0 1 5.73-17.1l15.38-20.42a9.34 9.34 0 0 0 1.47-2.77l10.13-30.17c1-3.09 2-3.77 11.72-5.46l4-.73a160.24 160.24 0 0 1 60.41 0l4 .73c9.74 1.69 10.7 2.37 11.74 5.47l10.1 30.16a9.76 9.76 0 0 0 1.47 2.78l15.41 20.42a28.58 28.58 0 0 1 5.71 17.09z" fill="#fff" fill-rule="evenodd"/><g clip-path="url(#a)"><path d="m49.17 49.17h236.02v236.02h-236.02z" fill="#fff"/><g clip-path="url(#b)"><path d="m68.84 78.67h196.69v167.18h-196.69z" fill="#fff"/><g clip-path="url(#c)"><path d="m68.84 78.67h196.69v167.18h-196.69z" fill="#fff"/><g clip-path="url(#c)"><path d="m19.67 39.34h295.03v255.69h-295.03z" fill="#fff"/></g><path d="m49.17 49.17h236.02v236.02h-236.02z" fill="#fff"/><g clip-path="url(#b)"><path d="m68.84 78.67h196.69v167.18h-196.69z" fill="#fff"/><g clip-path="url(#c)"><path d="m0 0h334.37v334.37h-334.37z" fill="#fff"/></g></g></g></g></g></svg>