<svg xmlns="http://www.w3.org/2000/svg" 
  xmlns:xlink="http://www.w3.org/1999/xlink" viewBox="0 0 138.31 239.49">
  <defs>
    <style>.cls-1{fill:#fff;}</style>
  </defs>
  <title>mob_phone_footer</title>
  <g id="Layer_2" data-name="Layer 2">
    <g id="Layer_1-2" data-name="Layer 1">
      <path class="cls-1" d="M88.61,16.45H49.7c-2.15,0-3.89.95-3.89,2.12s1.74,2.11,3.89,2.11H88.61c2.15,0,3.89-.95,3.89-2.11S90.76,16.45,88.61,16.45Z"/>
      <path class="cls-1" d="M115.85,16.45H112c-2.15,0-3.89.95-3.89,2.12s1.74,2.11,3.89,2.11h3.89c2.15,0,3.89-.95,3.89-2.11S118,16.45,115.85,16.45Z"/>
      <path class="cls-1" d="M138.31,30V17.07A17.07,17.07,0,0,0,121.25,0H17.07A17.09,17.09,0,0,0,0,17.07V222.42a17.09,17.09,0,0,0,17.07,17.07H121.24a17.09,17.09,0,0,0,17.07-17.07V194h0V30ZM124.53,222.42a3.29,3.29,0,0,1-3.28,3.28H17.07a3.29,3.29,0,0,1-3.29-3.28V200.57H124.53Zm0-35.63H13.78V37.13H124.53Zm0-163.44H13.78V17.07a3.3,3.3,0,0,1,3.29-3.29H121.24a3.3,3.3,0,0,1,3.29,3.29Z"/>
      <path class="cls-1" d="M69.15,221.94a8.8,8.8,0,1,0-8.8-8.8A8.8,8.8,0,0,0,69.15,221.94Z"/>
    </g>
  </g>
</svg>
