<svg viewBox="0 0 138.31 239.49" xmlns="http://www.w3.org/2000/svg"><g fill="#fff"><path d="m88.61 16.45h-38.91c-2.15 0-3.89.95-3.89 2.12s1.74 2.11 3.89 2.11h38.91c2.15 0 3.89-.95 3.89-2.11s-1.74-2.12-3.89-2.12z"/><path d="m115.85 16.45h-3.85c-2.15 0-3.89.95-3.89 2.12s1.74 2.11 3.89 2.11h3.89c2.15 0 3.89-.95 3.89-2.11s-1.78-2.12-3.93-2.12z"/><path d="m138.31 30v-12.93a17.07 17.07 0 0 0 -17.06-17.07h-104.18a17.09 17.09 0 0 0 -17.07 17.07v205.35a17.09 17.09 0 0 0 17.07 17.07h104.17a17.09 17.09 0 0 0 17.07-17.07v-28.42zm-13.78 192.42a3.29 3.29 0 0 1 -3.28 3.28h-104.18a3.29 3.29 0 0 1 -3.29-3.28v-21.85h110.75zm0-35.63h-110.75v-149.66h110.75zm0-163.44h-110.75v-6.28a3.3 3.3 0 0 1 3.29-3.29h104.17a3.3 3.3 0 0 1 3.29 3.29z"/><path d="m69.15 221.94a8.8 8.8 0 1 0 -8.8-8.8 8.8 8.8 0 0 0 8.8 8.8z"/></g></svg>