<svg xmlns="http://www.w3.org/2000/svg" xmlns:xlink="http://www.w3.org/1999/xlink" viewBox="0 0 244.49 244.49"><defs><style>.cls-1{fill:url(#linear-gradient);}.cls-2{fill:url(#linear-gradient-2);}</style><linearGradient id="linear-gradient" y1="122.24" x2="244.49" y2="122.24" gradientUnits="userSpaceOnUse"><stop offset="0" stop-color="#7db429"/><stop offset="1" stop-color="#abc910"/></linearGradient><linearGradient id="linear-gradient-2" x1="110.88" y1="90.47" x2="196.02" y2="90.47" xlink:href="#linear-gradient"/></defs><title>clock_footer</title><g id="Layer_2" data-name="Layer 2"><g id="Layer_1-2" data-name="Layer 1"><path class="cls-1" d="M122.24,0A122.25,122.25,0,1,0,244.49,122.24,122.38,122.38,0,0,0,122.24,0Zm0,223.75A101.51,101.51,0,1,1,223.76,122.24,101.62,101.62,0,0,1,122.24,223.75Z"/><path class="cls-2" d="M186,118.47H131v-66a10.07,10.07,0,0,0-20.14,0v76.11A10.07,10.07,0,0,0,121,138.6h65a10.07,10.07,0,1,0,0-20.13Z"/></g></g></svg>