<svg viewBox="0 0 244.49 244.49" xmlns="http://www.w3.org/2000/svg" xmlns:xlink="http://www.w3.org/1999/xlink"><linearGradient id="a" gradientUnits="userSpaceOnUse" x2="244.49" y1="122.24" y2="122.24"><stop offset="0" stop-color="#7db429"/><stop offset="1" stop-color="#abc910"/></linearGradient><linearGradient id="b" x1="110.88" x2="196.02" xlink:href="#a" y1="90.47" y2="90.47"/><path d="m122.24 0a122.25 122.25 0 1 0 122.25 122.24 122.38 122.38 0 0 0 -122.25-122.24zm0 223.75a101.51 101.51 0 1 1 101.52-101.51 101.62 101.62 0 0 1 -101.52 101.51z" fill="url(#a)"/><path d="m186 118.47h-55v-66a10.07 10.07 0 0 0 -20.14 0v76.11a10.07 10.07 0 0 0 10.14 10.02h65a10.07 10.07 0 1 0 0-20.13z" fill="url(#b)"/></svg>