<svg xmlns="http://www.w3.org/2000/svg" viewBox="0 0 181.69 206.71"><defs><style>.cls-1{fill:#f1f3f5;}</style></defs><title>condition1</title><g id="Layer_2" data-name="Layer 2"><g id="Layer_1-2" data-name="Layer 1"><path class="cls-1" d="M181.05,100.65,156.82,52.2a5.87,5.87,0,0,0-5.42-3.35H30.29a5.91,5.91,0,0,0-5.42,3.35L.64,100.65a6,6,0,0,0,.85,6.68l84.79,97.3a6,6,0,0,0,9.13,0l84.78-97.3A6,6,0,0,0,181.05,100.65ZM141.61,61,126.15,91.88,103,61ZM115.07,97.3H66.62L90.84,65ZM78.73,61,55.54,91.88,40.08,61ZM30.29,68.45,44.71,97.3H15.86Zm-10.92,41H50.51l29.85,70Zm71.47,63.7-27.16-63.7H118Zm10.49,6.3,29.85-70h31.14ZM137,97.3,151.4,68.45,165.83,97.3Z"/><path class="cls-1" d="M96.9,18.57V6.06a6.06,6.06,0,1,0-12.11,0V18.57a6.06,6.06,0,1,0,12.11,0Z"/><path class="cls-1" d="M65.15,35.27a6,6,0,0,0,0-8.56l-8.56-8.57A6.06,6.06,0,0,0,48,26.71l8.57,8.56A6,6,0,0,0,65.15,35.27Z"/><path class="cls-1" d="M125.1,35.27l8.57-8.56a6.06,6.06,0,0,0-8.57-8.57l-8.56,8.57a6.05,6.05,0,1,0,8.56,8.56Z"/></g></g></svg>