<svg viewBox="0 0 243.72 143.62" xmlns="http://www.w3.org/2000/svg"><g fill="#f1f3f5"><path d="m0 88.23v-88.23c17.8 1.41 37 4.46 44 7.85-2.94 24.27-16.23 67.37-20.35 80.38z"/><path d="m187.22 115.57c-2.1 1.81-4.94 2.43-6.61 1.47-4.12-3.31-21.69-21.29-32.58-32.64a5.54 5.54 0 1 0 -8 7.66c2.57 2.68 23.28 24.27 31.58 31.84-.64 2.4-3 3.83-4.1 4.4-3.53 1.78-7.21 1.49-8.61.22-.11-.1-.22-.21-.34-.3-6.63-5.31-23.3-23-27.07-27.12a5.55 5.55 0 0 0 -8.17 7.5c.18.19 16.44 17.74 25.64 26a10.72 10.72 0 0 1 -5.92 5.94 5.83 5.83 0 0 1 -6.35-1l-.16-.15c-7.9-6.66-24.06-23.87-27.22-27.24a5.54 5.54 0 1 0 -8.1 7.56c3.75 4 14.92 15.87 23.31 23.77a21 21 0 0 1 -2.65.15c-3.69 0-10.32-2.49-13.57-4.64-3.9-2.57-28.3-20.76-49.3-38.4-3-2.49-8.12-7.83-12.64-12.59-3.3-3.41-6.36-6.59-8.36-8.5 4.63-15.28 11.32-38.68 15-57.74h34c-7.56 7.61-17.76 22.86-15.11 34.05a13.69 13.69 0 0 0 9.52 10c12.55 4.15 24 .18 32.53-11.14a27.72 27.72 0 0 0 8.25-2.67c1-.46 2.26-1 3.88-1.66 6.34 5.96 14.93 12.88 23.93 20.16 16.28 13.18 34.75 28.11 38.91 36.75a6.49 6.49 0 0 1 -1.69 8.32z"/><path d="m195.53 97.14c-7.64-10.2-23.34-22.91-38.59-35.25-10.06-8.13-19.57-15.82-25.63-21.89a5.53 5.53 0 0 0 -5.79-1.3c-3.74 1.35-6 2.39-7.86 3.2a18.38 18.38 0 0 1 -7.43 2 5.51 5.51 0 0 0 -4 2.43c-7.84 11.71-16 10.71-21.36 8.89-1.73-.57-2-1.32-2.21-2-1.16-4.86 4.68-16.18 12.24-23.75 18-18 27.29-22.52 46.9-13.76 18.56 8.3 37.15 15.1 42.92 17.17 6.51 15.8 15.29 40.38 21 57.43z"/><path d="m243.72 99.31h-23.55c-5.25-17.11-20.76-61.71-29.41-80.14 8.45-2.87 26.61-7.8 53-8.42z"/></g></svg>