<svg viewBox="0 0 301.73 301.73" xmlns="http://www.w3.org/2000/svg" xmlns:xlink="http://www.w3.org/1999/xlink"><clipPath id="a"><path clip-rule="evenodd" d="m113.89 129.89a8 8 0 1 0 8 8.08 8.08 8.08 0 0 0 -8-8.08m0 33.27a8 8 0 1 0 8 8.09 8.08 8.08 0 0 0 -8-8.09m0 33.29a8 8 0 1 0 0 16.08 8 8 0 1 0 0-16.08m76.08 0h-50.47a8 8 0 0 0 0 16.08h50.5a8 8 0 1 0 0-16.08m0-33.3h-50.5a8 8 0 0 0 0 16.09h50.5a8 8 0 0 0 0-16.09m0-33.27h-50.5a8 8 0 0 0 0 16.08h50.5a8 8 0 0 0 0-16.08m39.47-25.4a1 1 0 0 0 -.05-.16 8 8 0 0 0 -1.69-2.59l-44.3-44.95a8.18 8.18 0 0 0 -2.69-1.78s-.05 0-.07 0a8.25 8.25 0 0 0 -2.91-.59h-88.56a18.79 18.79 0 0 0 -18.76 18.71v155.49a18.79 18.79 0 0 0 18.76 18.76h122a18.79 18.79 0 0 0 18.8-18.76v-121.27a7.94 7.94 0 0 0 -.56-2.85zm-43.79-22.48 17 17.29h-17zm25.54 149.28h-122.02a2.72 2.72 0 0 1 -2.68-2.68v-155.48a2.72 2.72 0 0 1 2.68-2.68h80.4v36.9a8 8 0 0 0 8 8h36.27v113.27a2.72 2.72 0 0 1 -2.65 2.68z"/></clipPath><clipPath id="b"><path d="m22.19 22.19h257.35v257.35h-257.35z"/></clipPath><clipPath id="c"><path d="m66.56 53.25h164.17v195.23h-164.17z"/></clipPath><path d="m113.89 129.89a8 8 0 1 0 8 8.08 8.08 8.08 0 0 0 -8-8.08m0 33.27a8 8 0 1 0 8 8.09 8.08 8.08 0 0 0 -8-8.09m0 33.29a8 8 0 1 0 0 16.08 8 8 0 1 0 0-16.08m76.08 0h-50.47a8 8 0 0 0 0 16.08h50.5a8 8 0 1 0 0-16.08m0-33.3h-50.5a8 8 0 0 0 0 16.09h50.5a8 8 0 0 0 0-16.09m0-33.27h-50.5a8 8 0 0 0 0 16.08h50.5a8 8 0 0 0 0-16.08m39.47-25.4a1 1 0 0 0 -.05-.16 8 8 0 0 0 -1.69-2.59l-44.3-44.95a8.18 8.18 0 0 0 -2.69-1.78s-.05 0-.07 0a8.25 8.25 0 0 0 -2.91-.59h-88.56a18.79 18.79 0 0 0 -18.76 18.71v155.49a18.79 18.79 0 0 0 18.76 18.76h122a18.79 18.79 0 0 0 18.8-18.76v-121.27a7.94 7.94 0 0 0 -.56-2.85zm-43.79-22.48 17 17.29h-17zm25.54 149.28h-122.02a2.72 2.72 0 0 1 -2.68-2.68v-155.48a2.72 2.72 0 0 1 2.68-2.68h80.4v36.9a8 8 0 0 0 8 8h36.27v113.27a2.72 2.72 0 0 1 -2.65 2.68z" fill="#fff" fill-rule="evenodd"/><g clip-path="url(#a)"><path d="m22.19 22.19h257.35v257.35h-257.35z" fill="#fff"/><g clip-path="url(#b)"><path d="m66.56 53.25h164.17v195.23h-164.17z" fill="#fff"/><g clip-path="url(#c)"><path d="m66.56 53.25h164.17v195.23h-164.17z" fill="#fff"/><g clip-path="url(#c)"><path d="m48.25 32.17h203.92v237.39h-203.92z" fill="#fff"/></g><path d="m22.19 22.19h257.35v257.35h-257.35z" fill="#fff"/><g clip-path="url(#b)"><path d="m66.56 53.25h164.17v195.23h-164.17z" fill="#fff"/><g clip-path="url(#c)"><path d="m0 0h301.73v301.73h-301.73z" fill="#fff"/></g></g></g></g></g></svg>