<svg viewBox="0 0 246.52 187.6" xmlns="http://www.w3.org/2000/svg"><g fill="#fff"><path d="m216.42 0h-186.27a30.18 30.18 0 0 0 -30.15 30.15v127.31a30.17 30.17 0 0 0 30.15 30.14h186.22a30.17 30.17 0 0 0 30.15-30.14v-127.26a30.15 30.15 0 0 0 -30.1-30.2zm16.38 157.46a16.39 16.39 0 0 1 -16.38 16.37h-186.27a16.39 16.39 0 0 1 -16.38-16.37v-127.26a16.4 16.4 0 0 1 16.38-16.38h186.22a16.39 16.39 0 0 1 16.37 16.38v127.26z"/><path d="m155.47 92.22 60.29-54.07a6.9 6.9 0 1 0 -9.23-10.25l-83.14 74.62-16.23-14.52c0-.05-.1-.1-.1-.16a9.43 9.43 0 0 0 -1.12-1l-66-59.07a6.9 6.9 0 1 0 -9.18 10.3l61 54.53-60.76 56.95a6.91 6.91 0 0 0 -.3 9.74 7 7 0 0 0 5 2.2 6.89 6.89 0 0 0 4.7-1.84l61.72-57.65 16.72 15a6.89 6.89 0 0 0 9.19 0l17.19-15.41 61.31 58.25a6.9 6.9 0 0 0 9.74-.25 6.91 6.91 0 0 0 -.26-9.74z"/></g></svg>