<svg viewBox="0 0 315.62 185.99" xmlns="http://www.w3.org/2000/svg"><g fill="#f1f3f5"><path d="m0 114.26v-114.26c23.05 1.82 47.93 5.78 57 10.17-3.8 31.42-21 87.24-26.34 104.09z"/><path d="m242.45 149.66c-2.72 2.34-6.4 3.14-8.56 1.9-5.34-4.27-28.09-27.56-42.19-42.27a7.18 7.18 0 0 0 -10.36 9.93c3.33 3.47 30.15 31.42 40.9 41.22-.83 3.12-3.86 5-5.32 5.71-4.57 2.31-9.34 1.92-11.15.28-.14-.13-.28-.26-.43-.38-8.59-6.88-30.18-29.82-35.06-35.12a7.18 7.18 0 0 0 -10.58 9.71c.24.24 21.29 23 33.2 33.64a13.87 13.87 0 0 1 -7.66 7.69 7.56 7.56 0 0 1 -8.23-1.28c-.08-.06-.14-.13-.22-.2-10.23-8.62-31.16-30.9-35.25-35.28a7.18 7.18 0 0 0 -10.49 9.8c4.86 5.2 19.33 20.55 30.19 30.78a26.5 26.5 0 0 1 -3.43.2c-4.78 0-13.37-3.23-17.57-6-5-3.32-36.62-26.87-63.89-49.71-3.83-3.28-10.46-10.16-16.35-16.28-4.28-4.47-8.25-8.59-10.88-11.06 6-19.78 14.65-50.09 19.42-74.77h44c-9.8 9.85-23 29.6-19.57 44.1 1.48 6.2 5.84 10.79 12.32 12.92 16.26 5.37 31.09.23 42.14-14.43a36.09 36.09 0 0 0 10.77-3.41c1.35-.61 2.93-1.31 5-2.16 8.21 7.71 19.28 16.68 31 26.1 21.09 17.06 45 36.4 50.38 47.59 2.67 5.53-.19 9.12-2.13 10.78z"/><path d="m253.21 125.8c-9.89-13.22-30.23-29.67-50-45.65-13-10.53-25.33-20.48-33.18-28.33a7.18 7.18 0 0 0 -7.5-1.68c-4.84 1.75-7.82 3.1-10.18 4.15a23.83 23.83 0 0 1 -9.62 2.64 7.14 7.14 0 0 0 -5.25 3.14c-10.15 15.16-20.65 13.87-27.66 11.52-2.24-.75-2.64-1.71-2.86-2.63-1.5-6.29 6.06-21 15.85-30.76 23.34-23.32 35.36-29.2 60.75-17.81 24 10.75 48.11 19.55 55.59 22.22 8.42 20.47 19.85 52.29 27.17 74.39z"/><path d="m315.62 128.6h-30.5c-6.8-22.15-26.88-79.91-38.09-103.78 11-3.72 34.46-10.1 68.59-10.9z"/></g></svg>