<svg xmlns="http://www.w3.org/2000/svg" viewBox="0 0 231.52 231.59"><defs><style>.cls-1{fill:#fff;}</style></defs><title>step4_1</title><g id="Layer_2" data-name="Layer 2"><g id="Layer_1-2" data-name="Layer 1"><path class="cls-1" d="M52.86,195.25A6.45,6.45,0,0,0,62,204.37h0a6.44,6.44,0,1,0-9.11-9.11Z"/><path class="cls-1" d="M134.42,101.77A50.89,50.89,0,1,0,83.54,50.88,50.95,50.95,0,0,0,134.42,101.77Zm-38-50.89a38,38,0,1,1,38,38A38,38,0,0,1,96.43,50.88Z"/><path class="cls-1" d="M224.51,99a19.87,19.87,0,0,0-27.71,2.16l-24.7,25.38a19.71,19.71,0,0,0-13.86-5.69H109.08a59.3,59.3,0,0,0-22.65-4.45c-22.33,0-40.91,10.28-51.2,28.25A15.34,15.34,0,0,0,23,149.12L1.87,170.32a6.47,6.47,0,0,0,0,9.09l49.9,50.28a6.46,6.46,0,0,0,9.1.05l21.55-21.23a15.46,15.46,0,0,0,4-14.61l3.77-3.63a11.25,11.25,0,0,1,7.86-3.18h59.08a41.76,41.76,0,0,0,29.29-11.9h0c.33-.33,1.4-1.62,7.5-8.91l32.94-39.38A19.81,19.81,0,0,0,224.51,99ZM74,197.68a2.42,2.42,0,0,1-.67,1.68l-17,16.69L15.53,174.88l16.61-16.66a2.43,2.43,0,0,1,3-.33l.08,0c.29.24,2,1.9,7.48,7.43,5.37,5.39,14.6,14.64,30.56,30.58A2.36,2.36,0,0,1,74,197.68Zm83.12-23.47H98.05A24.1,24.1,0,0,0,81.23,181l-2.36,2.28L46.51,150.92c7.93-13.75,22.39-21.6,39.92-21.6a46.35,46.35,0,0,1,18.76,3.91,6.56,6.56,0,0,0,2.58.54h50.47a6.89,6.89,0,1,1,0,13.77H122a6.45,6.45,0,0,0,0,12.89h36.26A19.8,19.8,0,0,0,178,140.65c0-.52,0-1.05-.07-1.6l17.68-18.17c10.71-11,10.71-11,10.85-11.18A6.89,6.89,0,1,1,217,118.61l-39.78,47.56A29,29,0,0,1,157.13,174.21Z"/><rect class="cls-1" x="112.7" y="30.01" width="44.95" height="9.47"/><polygon class="cls-1" points="112.89 52.8 130.42 52.8 130.42 78.08 140.31 78.08 140.31 52.8 157.84 52.8 157.84 43.27 112.89 43.27 112.89 52.8"/></g></g></svg>