<svg xmlns="http://www.w3.org/2000/svg" 
  xmlns:xlink="http://www.w3.org/1999/xlink" viewBox="0 0 210.99 211.3">
  <defs>
    <style>.cls-1{fill:url(#linear-gradient);}.cls-2{fill:url(#linear-gradient-2);}.cls-3{fill:url(#linear-gradient-3);}</style>
    <linearGradient id="linear-gradient" y1="111.76" x2="198.19" y2="111.76" gradientUnits="userSpaceOnUse">
      <stop offset="0" stop-color="#7db429"/>
      <stop offset="1" stop-color="#abc910"/>
    </linearGradient>
    <linearGradient id="linear-gradient-2" x1="109.08" y1="70.16" x2="172.76" y2="70.16" xlink:href="#linear-gradient"/>
    <linearGradient id="linear-gradient-3" x1="110.79" y1="50.08" x2="210.99" y2="50.08" xlink:href="#linear-gradient"/>
  </defs>
  <title>phone_footer</title>
  <g id="Layer_2" data-name="Layer 2">
    <g id="Layer_1-2" data-name="Layer 1">
      <path class="cls-1" d="M166.84,130.89c-4.33-4.5-9.54-6.91-15.07-6.91s-10.75,2.37-15.25,6.87l-14.1,14.05c-1.16-.63-2.32-1.21-3.43-1.79-1.61-.8-3.12-1.56-4.42-2.36-13.2-8.38-25.19-19.31-36.7-33.45a90.6,90.6,0,0,1-12-19c3.66-3.35,7-6.83,10.35-10.17,1.25-1.25,2.49-2.55,3.74-3.8,9.37-9.36,9.37-21.49,0-30.86L67.75,31.31c-1.38-1.38-2.81-2.81-4.15-4.24-2.68-2.76-5.48-5.62-8.38-8.29a21.13,21.13,0,0,0-14.94-6.56c-5.45,0-10.71,2.28-15.17,6.56l-.08.09L9.86,34.16A32.67,32.67,0,0,0,.18,54.9C-.89,67.92,3,80.05,5.89,88c7.23,19.49,18,37.55,34.12,56.91a209.88,209.88,0,0,0,69.88,54.72c10.26,4.86,24,10.61,39.25,11.59.93,0,1.91.09,2.81.09,10.3,0,19-3.7,25.73-11.06,0-.09.13-.13.18-.22a101.25,101.25,0,0,1,7.8-8.07c1.92-1.83,3.88-3.75,5.8-5.76,4.41-4.59,6.73-9.94,6.73-15.43s-2.36-10.83-6.86-15.29Zm16,47c-.05,0-.05.05,0,0-1.74,1.88-3.53,3.57-5.44,5.45a116,116,0,0,0-8.61,8.91C164.25,197,159,199.3,152,199.3c-.67,0-1.38,0-2.05,0-13.24-.85-25.55-6-34.79-10.43a198.09,198.09,0,0,1-65.82-51.56C34.12,118.94,24,102,17.22,83.8c-4.15-11.1-5.66-19.76-5-27.92a20.42,20.42,0,0,1,6.15-13.24L33.59,27.43c2.18-2.05,4.5-3.17,6.78-3.17a9.56,9.56,0,0,1,6.51,3.13l.13.13c2.72,2.54,5.31,5.17,8,8,1.38,1.43,2.81,2.86,4.23,4.33L71.45,52c4.73,4.73,4.73,9.1,0,13.83-1.29,1.29-2.54,2.59-3.84,3.83-3.74,3.84-7.31,7.41-11.19,10.88-.09.09-.18.14-.22.23-3.84,3.83-3.12,7.58-2.32,10.12l.13.4c3.17,7.67,7.63,14.9,14.41,23.51l0,0c12.31,15.16,25.29,27,39.6,36a59.78,59.78,0,0,0,5.49,3c1.6.8,3.12,1.56,4.41,2.37.18.09.36.22.54.31a9.73,9.73,0,0,0,4.41,1.11,9.56,9.56,0,0,0,6.78-3.07l15.25-15.26c1.52-1.51,3.93-3.34,6.74-3.34a9.1,9.1,0,0,1,6.42,3.25l24.66,24.66c4.6,4.55,4.6,9.24.05,14Z"/>
      <path class="cls-2" d="M114,50.26A57.42,57.42,0,0,1,160.78,97a6,6,0,0,0,5.93,5,8.78,8.78,0,0,0,1-.09,6,6,0,0,0,5-7A69.4,69.4,0,0,0,116.13,38.4a6.05,6.05,0,0,0-6.95,4.91A6,6,0,0,0,114,50.26Z"/>
      <path class="cls-3" d="M210.9,93.21A114.26,114.26,0,0,0,117.78.09a6,6,0,1,0-2,11.87A102.06,102.06,0,0,1,199,95.17a6,6,0,0,0,5.93,5,9,9,0,0,0,1-.09,5.91,5.91,0,0,0,4.9-6.87Z"/>
    </g>
  </g>
</svg>