<svg xmlns="http://www.w3.org/2000/svg" xmlns:xlink="http://www.w3.org/1999/xlink" viewBox="0 0 351.03 351.03"><defs><style>.cls-1,.cls-2,.cls-3{fill:#fff;}.cls-1{clip-rule:evenodd;}.cls-3{fill-rule:evenodd;}.cls-4{clip-path:url(#clip-path);}.cls-5{clip-path:url(#clip-path-2);}.cls-6{isolation:isolate;}.cls-7{clip-path:url(#clip-path-3);}</style><clipPath id="clip-path" transform="translate(51.62 51.62)"><path class="cls-1" d="M196.16,31H51.62A10.32,10.32,0,0,0,41.3,41.29v59.12c0,38.64,15.73,65.79,33.17,84.08.22.28.31.61.57.89a10.36,10.36,0,0,0,1,.7c21,21.3,43.89,30,44.31,30.11a10.42,10.42,0,0,0,3.51.61,10.29,10.29,0,0,0,3.51-.61c.79-.26,79.09-29.52,79.09-115.78V41.29A10.33,10.33,0,0,0,196.16,31ZM185.84,64.18l-102.72,99A99.1,99.1,0,0,1,71.32,144l95.75-92.34h18.77ZM62,51.61h75.38L64.09,122.24A109.2,109.2,0,0,1,62,100.41Zm62,143.7a115.56,115.56,0,0,1-26.48-17.19l88.4-85.25v7.54C185.84,163,137.72,189.1,123.92,195.31Z"/></clipPath><clipPath id="clip-path-2" transform="translate(51.62 51.62)"><rect class="cls-2" width="247.79" height="247.79"/></clipPath><clipPath id="clip-path-3" transform="translate(51.62 51.62)"><rect class="cls-2" x="30.97" y="20.65" width="175.52" height="196.17"/></clipPath></defs><title>Asset 118</title><g id="Layer_2" data-name="Layer 2"><g id="Layer_1-2" data-name="Layer 1"><path class="cls-3" d="M196.16,31H51.62A10.32,10.32,0,0,0,41.3,41.29v59.12c0,38.64,15.73,65.79,33.17,84.08.22.28.31.61.57.89a10.36,10.36,0,0,0,1,.7c21,21.3,43.89,30,44.31,30.11a10.42,10.42,0,0,0,3.51.61,10.29,10.29,0,0,0,3.51-.61c.79-.26,79.09-29.52,79.09-115.78V41.29A10.33,10.33,0,0,0,196.16,31ZM185.84,64.18l-102.72,99A99.1,99.1,0,0,1,71.32,144l95.75-92.34h18.77ZM62,51.61h75.38L64.09,122.24A109.2,109.2,0,0,1,62,100.41Zm62,143.7a115.56,115.56,0,0,1-26.48-17.19l88.4-85.25v7.54C185.84,163,137.72,189.1,123.92,195.31Z" transform="translate(51.62 51.62)"/><g class="cls-4"><rect class="cls-2" x="51.62" y="51.62" width="247.79" height="247.79"/><g class="cls-5"><g class="cls-6"><rect class="cls-2" x="82.6" y="72.27" width="175.52" height="196.17"/><g class="cls-7"><rect class="cls-2" x="82.6" y="72.27" width="175.52" height="196.17"/><g class="cls-7"><rect class="cls-2" x="41.3" y="30.96" width="268.44" height="289.09"/></g><rect class="cls-2" x="51.62" y="51.62" width="247.79" height="247.79"/><g class="cls-5"><rect class="cls-2" x="82.6" y="72.27" width="175.52" height="196.17"/><g class="cls-7"><rect class="cls-2" width="351.03" height="351.03"/></g></g></g></g></g></g></g></g></svg>