<svg viewBox="0 0 351.03 351.03" xmlns="http://www.w3.org/2000/svg" xmlns:xlink="http://www.w3.org/1999/xlink"><clipPath id="a" transform="translate(51.62 51.62)"><path clip-rule="evenodd" d="m196.16 31h-144.54a10.32 10.32 0 0 0 -10.32 10.29v59.12c0 38.64 15.73 65.79 33.17 84.08.22.28.31.61.57.89a10.36 10.36 0 0 0 1 .7c21 21.3 43.89 30 44.31 30.11a10.42 10.42 0 0 0 3.51.61 10.29 10.29 0 0 0 3.51-.61c.79-.26 79.09-29.52 79.09-115.78v-59.12a10.33 10.33 0 0 0 -10.3-10.29zm-10.32 33.18-102.72 99a99.1 99.1 0 0 1 -11.8-19.18l95.75-92.34h18.77zm-123.84-12.57h75.38l-73.29 70.63a109.2 109.2 0 0 1 -2.09-21.83zm62 143.7a115.56 115.56 0 0 1 -26.48-17.19l88.4-85.25v7.54c-.08 62.59-48.2 88.69-62 94.9z"/></clipPath><clipPath id="b" transform="translate(51.62 51.62)"><path d="m0 0h247.79v247.79h-247.79z"/></clipPath><clipPath id="c" transform="translate(51.62 51.62)"><path d="m30.97 20.65h175.52v196.17h-175.52z"/></clipPath><path d="m196.16 31h-144.54a10.32 10.32 0 0 0 -10.32 10.29v59.12c0 38.64 15.73 65.79 33.17 84.08.22.28.31.61.57.89a10.36 10.36 0 0 0 1 .7c21 21.3 43.89 30 44.31 30.11a10.42 10.42 0 0 0 3.51.61 10.29 10.29 0 0 0 3.51-.61c.79-.26 79.09-29.52 79.09-115.78v-59.12a10.33 10.33 0 0 0 -10.3-10.29zm-10.32 33.18-102.72 99a99.1 99.1 0 0 1 -11.8-19.18l95.75-92.34h18.77zm-123.84-12.57h75.38l-73.29 70.63a109.2 109.2 0 0 1 -2.09-21.83zm62 143.7a115.56 115.56 0 0 1 -26.48-17.19l88.4-85.25v7.54c-.08 62.59-48.2 88.69-62 94.9z" fill="#fff" fill-rule="evenodd" transform="translate(51.62 51.62)"/><g clip-path="url(#a)"><path d="m51.62 51.62h247.79v247.79h-247.79z" fill="#fff"/><g clip-path="url(#b)"><path d="m82.6 72.27h175.52v196.17h-175.52z" fill="#fff"/><g clip-path="url(#c)"><path d="m82.6 72.27h175.52v196.17h-175.52z" fill="#fff"/><g clip-path="url(#c)"><path d="m41.3 30.96h268.44v289.09h-268.44z" fill="#fff"/></g><path d="m51.62 51.62h247.79v247.79h-247.79z" fill="#fff"/><g clip-path="url(#b)"><path d="m82.6 72.27h175.52v196.17h-175.52z" fill="#fff"/><g clip-path="url(#c)"><path d="m0 0h351.03v351.03h-351.03z" fill="#fff"/></g></g></g></g></g></svg>