<svg viewBox="0 0 312.31 312.31" xmlns="http://www.w3.org/2000/svg" xmlns:xlink="http://www.w3.org/1999/xlink"><clipPath id="a"><path clip-rule="evenodd" d="m214.36 202.59h16.54a8.33 8.33 0 0 0 0-16.65h-36.63a8.27 8.27 0 0 0 -3 .59h-.13a8.38 8.38 0 0 0 -4.53 4.53s0 .08 0 .13a8.31 8.31 0 0 0 -.59 3v36.71a8.33 8.33 0 1 0 16.65 0v-16.54l33.7 33.7a8.32 8.32 0 1 0 11.77-11.77zm-58.2-64.77a18.34 18.34 0 1 0 18.34 18.34 18.36 18.36 0 0 0 -18.34-18.34m0 20a1.69 1.69 0 1 1 1.69-1.68 1.69 1.69 0 0 1 -1.69 1.68m43.18-1.68a8.33 8.33 0 1 0 16.65 0 59.83 59.83 0 1 0 -59.83 59.86 8.32 8.32 0 0 0 0-16.64 43.19 43.19 0 1 1 43.18-43.19zm-143.08 0a100 100 0 0 0 99.9 99.89 8.33 8.33 0 0 0 0-16.65 83.25 83.25 0 1 1 83.24-83.24 8.33 8.33 0 0 0 16.65 0 99.9 99.9 0 1 0 -199.79 0z"/></clipPath><clipPath id="b"><path d="m22.96 22.96h266.38v266.38h-266.38z"/></clipPath><clipPath id="c"><path d="m55.11 55.11h202.08v202.08h-202.08z"/></clipPath><path d="m214.36 202.59h16.54a8.33 8.33 0 0 0 0-16.65h-36.63a8.27 8.27 0 0 0 -3 .59h-.13a8.38 8.38 0 0 0 -4.53 4.53s0 .08 0 .13a8.31 8.31 0 0 0 -.59 3v36.71a8.33 8.33 0 1 0 16.65 0v-16.54l33.7 33.7a8.32 8.32 0 1 0 11.77-11.77zm-58.2-64.77a18.34 18.34 0 1 0 18.34 18.34 18.36 18.36 0 0 0 -18.34-18.34m0 20a1.69 1.69 0 1 1 1.69-1.68 1.69 1.69 0 0 1 -1.69 1.68m43.18-1.68a8.33 8.33 0 1 0 16.65 0 59.83 59.83 0 1 0 -59.83 59.86 8.32 8.32 0 0 0 0-16.64 43.19 43.19 0 1 1 43.18-43.19zm-143.08 0a100 100 0 0 0 99.9 99.89 8.33 8.33 0 0 0 0-16.65 83.25 83.25 0 1 1 83.24-83.24 8.33 8.33 0 0 0 16.65 0 99.9 99.9 0 1 0 -199.79 0z" fill="#fff" fill-rule="evenodd"/><g clip-path="url(#a)"><path d="m22.96 22.96h266.38v266.38h-266.38z" fill="#fff"/><g clip-path="url(#b)"><path d="m55.11 55.11h202.08v202.08h-202.08z" fill="#fff"/><g clip-path="url(#c)"><path d="m55.11 55.11h202.08v202.08h-202.08z" fill="#fff"/><g clip-path="url(#c)"><path d="m33.3 33.3h245.71v245.71h-245.71z" fill="#fff"/></g><path d="m22.96 22.96h266.38v266.38h-266.38z" fill="#fff"/><g clip-path="url(#b)"><path d="m55.11 55.11h202.08v202.08h-202.08z" fill="#fff"/><g clip-path="url(#c)"><path d="m0 0h312.31v312.31h-312.31z" fill="#fff"/></g></g></g></g></g></svg>