<svg xmlns="http://www.w3.org/2000/svg" xmlns:xlink="http://www.w3.org/1999/xlink" viewBox="0 0 312.31 312.31"><defs><style>.cls-1,.cls-2,.cls-3{fill:#fff;}.cls-1{clip-rule:evenodd;}.cls-3{fill-rule:evenodd;}.cls-4{clip-path:url(#clip-path);}.cls-5{clip-path:url(#clip-path-2);}.cls-6{isolation:isolate;}.cls-7{clip-path:url(#clip-path-3);}</style><clipPath id="clip-path"><path class="cls-1" d="M214.36,202.59H230.9a8.33,8.33,0,0,0,0-16.65H194.27a8.27,8.27,0,0,0-3,.59l-.13,0a8.38,8.38,0,0,0-4.53,4.53s0,.08,0,.13a8.31,8.31,0,0,0-.59,3V230.9a8.33,8.33,0,1,0,16.65,0V214.36l33.7,33.7a8.32,8.32,0,1,0,11.77-11.77Zm-58.2-64.77a18.34,18.34,0,1,0,18.34,18.34,18.36,18.36,0,0,0-18.34-18.34m0,20a1.69,1.69,0,1,1,1.69-1.68,1.69,1.69,0,0,1-1.69,1.68m43.18-1.68a8.33,8.33,0,1,0,16.65,0A59.83,59.83,0,1,0,156.16,216a8.32,8.32,0,0,0,0-16.64,43.19,43.19,0,1,1,43.18-43.19Zm-143.08,0a100,100,0,0,0,99.9,99.89,8.33,8.33,0,0,0,0-16.65,83.25,83.25,0,1,1,83.24-83.24,8.33,8.33,0,0,0,16.65,0,99.9,99.9,0,1,0-199.79,0Z"/></clipPath><clipPath id="clip-path-2"><rect class="cls-2" x="22.96" y="22.96" width="266.38" height="266.38"/></clipPath><clipPath id="clip-path-3"><rect class="cls-2" x="55.11" y="55.11" width="202.08" height="202.08"/></clipPath></defs><title>target</title><g id="Layer_2" data-name="Layer 2"><g id="Layer_1-2" data-name="Layer 1"><path class="cls-3" d="M214.36,202.59H230.9a8.33,8.33,0,0,0,0-16.65H194.27a8.27,8.27,0,0,0-3,.59l-.13,0a8.38,8.38,0,0,0-4.53,4.53s0,.08,0,.13a8.31,8.31,0,0,0-.59,3V230.9a8.33,8.33,0,1,0,16.65,0V214.36l33.7,33.7a8.32,8.32,0,1,0,11.77-11.77Zm-58.2-64.77a18.34,18.34,0,1,0,18.34,18.34,18.36,18.36,0,0,0-18.34-18.34m0,20a1.69,1.69,0,1,1,1.69-1.68,1.69,1.69,0,0,1-1.69,1.68m43.18-1.68a8.33,8.33,0,1,0,16.65,0A59.83,59.83,0,1,0,156.16,216a8.32,8.32,0,0,0,0-16.64,43.19,43.19,0,1,1,43.18-43.19Zm-143.08,0a100,100,0,0,0,99.9,99.89,8.33,8.33,0,0,0,0-16.65,83.25,83.25,0,1,1,83.24-83.24,8.33,8.33,0,0,0,16.65,0,99.9,99.9,0,1,0-199.79,0Z"/><g class="cls-4"><rect class="cls-2" x="22.96" y="22.96" width="266.38" height="266.38"/><g class="cls-5"><g class="cls-6"><rect class="cls-2" x="55.11" y="55.11" width="202.08" height="202.08"/><g class="cls-7"><rect class="cls-2" x="55.11" y="55.11" width="202.08" height="202.08"/><g class="cls-7"><rect class="cls-2" x="33.3" y="33.3" width="245.71" height="245.71"/></g><rect class="cls-2" x="22.96" y="22.96" width="266.38" height="266.38"/><g class="cls-5"><rect class="cls-2" x="55.11" y="55.11" width="202.08" height="202.08"/><g class="cls-7"><rect class="cls-2" width="312.31" height="312.31"/></g></g></g></g></g></g></g></g></svg>